{
  "source": "C:\\Users\\Peter\\Desktop\\stuff\\MIUN\\quantitative_research\\video_compression\\videos\\BVI-HD\\BVI-HD_CDVL_videos\\ORIG\\BubblesPitcher_1920x1080_60fps.mp4",
  "output": "C:\\Users\\Peter\\Desktop\\stuff\\MIUN\\quantitative_research\\video_compression\\compressed_videos\\BVI-HD\\h264\\8\\BubblesPitcher_1920x1080_60fps_h264.mp4",
  "codec": "h264",
  "ok": "Input #0, mov,mp4,m4a,3gp,3g2,mj2, from 'C:\\Users\\Peter\\Desktop\\stuff\\MIUN\\quantitative_research\\video_compression\\videos\\BVI-HD\\BVI-HD_CDVL_videos\\ORIG\\BubblesPitcher_1920x1080_60fps.mp4':\n  Metadata:\n    major_brand     : isom\n    minor_version   : 512\n    compatible_brands: isomiso2avc1mp41\n    encoder         : Lavf54.28.101\n  Duration: 00:00:05.00, start: 0.000000, bitrate: 188849 kb/s\n  Stream #0:0[0x1](und): Video: h264 (High 4:4:4 Predictive) (avc1 / 0x31637661), yuv420p(progressive), 1920x1080, 188844 kb/s, 60 fps, 60 tbr, 60 tbn (default)\n    Metadata:\n      handler_name    : VideoHandler\n      vendor_id       : [0][0][0][0]\n[out#0/mp4 @ 0000018b732b1440] Codec AVOption b:a (set bitrate (in bits/s)) has not been used for any stream. The most likely reason is either wrong type (e.g. a video option with no video streams) or that it is a private option of some decoder which was not actually used for any stream.\nStream mapping:\n  Stream #0:0 -> #0:0 (h264 (native) -> h264 (libx264))\nPress [q] to stop, [?] for help\n[libx264 @ 0000018b73ae2240] using cpu capabilities: MMX2 SSE2Fast SSSE3 SSE4.2 AVX FMA3 BMI2 AVX2\n[libx264 @ 0000018b73ae2240] profile High, level 5.0, 4:2:0, 8-bit\n[libx264 @ 0000018b73ae2240] 264 - core 165 r3222 b35605a - H.264/MPEG-4 AVC codec - Copyleft 2003-2025 - http://www.videolan.org/x264.html - options: cabac=1 ref=5 deblock=1:0:0 analyse=0x3:0x113 me=hex subme=8 psy=1 psy_rd=1.00:0.00 mixed_ref=1 me_range=16 chroma_me=1 trellis=2 8x8dct=1 cqm=0 deadzone=21,11 fast_pskip=1 chroma_qp_offset=-2 threads=18 lookahead_threads=3 sliced_threads=0 nr=0 decimate=1 interlaced=0 bluray_compat=0 constrained_intra=0 bframes=3 b_pyramid=2 b_adapt=1 b_bias=0 direct=3 weightb=1 open_gop=0 weightp=2 keyint=250 keyint_min=25 scenecut=40 intra_refresh=0 rc_lookahead=50 rc=cbr mbtree=1 bitrate=8000 ratetol=1.0 qcomp=0.60 qpmin=0 qpmax=69 qpstep=4 vbv_maxrate=8000 vbv_bufsize=8000 nal_hrd=none filler=0 ip_ratio=1.40 aq=1:1.00\nOutput #0, mp4, to 'C:\\Users\\Peter\\Desktop\\stuff\\MIUN\\quantitative_research\\video_compression\\compressed_videos\\BVI-HD\\h264\\8\\BubblesPitcher_1920x1080_60fps_h264.mp4':\n  Metadata:\n    major_brand     : isom\n    minor_version   : 512\n    compatible_brands: isomiso2avc1mp41\n    encoder         : Lavf62.3.100\n  Stream #0:0(und): Video: h264 (avc1 / 0x31637661), yuv420p(tv, progressive), 1920x1080, q=2-31, 8000 kb/s, 60 fps, 15360 tbn (default)\n    Metadata:\n      encoder         : Lavc62.11.100 libx264\n      handler_name    : VideoHandler\n      vendor_id       : [0][0][0][0]\n    Side data:\n      cpb: bitrate max/min/avg: 8000000/0/8000000 buffer size: 8000000 vbv_delay: N/A\nframe=    0 fps=0.0 q=0.0 size=       0KiB time=N/A bitrate=N/A speed=N/A elapsed=0:00:00.51    \nframe=    0 fps=0.0 q=0.0 size=       0KiB time=N/A bitrate=N/A speed=N/A elapsed=0:00:01.05    \nframe=   24 fps= 14 q=28.0 size=     256KiB time=00:00:00.33 bitrate=6292.6kbits/s speed=0.199x elapsed=0:00:01.67    \nframe=   38 fps= 17 q=29.0 size=     512KiB time=00:00:00.58 bitrate=7190.9kbits/s speed=0.255x elapsed=0:00:02.28    \nframe=   56 fps= 19 q=30.0 size=     768KiB time=00:00:00.78 bitrate=8032.1kbits/s speed=0.271x elapsed=0:00:02.89    \nframe=   72 fps= 20 q=30.0 size=    1280KiB time=00:00:01.05 bitrate=9986.8kbits/s speed=0.293x elapsed=0:00:03.58    \nframe=   85 fps= 20 q=30.0 size=    1536KiB time=00:00:01.36 bitrate=9207.3kbits/s speed=0.325x elapsed=0:00:04.19    \nframe=  103 fps= 21 q=31.0 size=    1792KiB time=00:00:01.65 bitrate=8897.2kbits/s speed=0.343x elapsed=0:00:04.80    \nframe=  109 fps= 20 q=32.0 size=    1792KiB time=00:00:01.76 bitrate=8309.7kbits/s speed=0.326x elapsed=0:00:05.42    \nframe=  110 fps= 18 q=32.0 size=    1792KiB time=00:00:01.80 bitrate=8155.8kbits/s speed= 0.3x elapsed=0:00:05.99    \nframe=  120 fps= 18 q=33.0 size=    2048KiB time=00:00:01.95 bitrate=8603.9kbits/s speed=0.297x elapsed=0:00:06.55    \nframe=  129 fps= 18 q=33.0 size=    2048KiB time=00:00:02.10 bitrate=7989.3kbits/s speed=0.293x elapsed=0:00:07.15    \nframe=  137 fps= 18 q=33.0 size=    2304KiB time=00:00:02.25 bitrate=8388.8kbits/s speed=0.293x elapsed=0:00:07.67    \nframe=  145 fps= 18 q=34.0 size=    2304KiB time=00:00:02.36 bitrate=7975.2kbits/s speed=0.289x elapsed=0:00:08.20    \nframe=  156 fps= 18 q=35.0 size=    2560KiB time=00:00:02.53 bitrate=8278.4kbits/s speed=0.286x elapsed=0:00:08.84    \nframe=  164 fps= 17 q=36.0 size=    2816KiB time=00:00:02.68 bitrate=8597.2kbits/s speed=0.283x elapsed=0:00:09.48    \nframe=  174 fps= 17 q=37.0 size=    2816KiB time=00:00:02.83 bitrate=8142.0kbits/s speed=0.282x elapsed=0:00:10.05    \nframe=  182 fps= 17 q=37.0 size=    3072KiB time=00:00:02.98 bitrate=8435.6kbits/s speed=0.279x elapsed=0:00:10.69    \nframe=  190 fps= 17 q=37.0 size=    3328KiB time=00:00:03.11 bitrate=8747.6kbits/s speed=0.276x elapsed=0:00:11.28    \nframe=  199 fps= 17 q=38.0 size=    3328KiB time=00:00:03.28 bitrate=8303.6kbits/s speed=0.277x elapsed=0:00:11.83    \nframe=  209 fps= 17 q=38.0 size=    3584KiB time=00:00:03.45 bitrate=8510.3kbits/s speed=0.278x elapsed=0:00:12.41    \nframe=  219 fps= 17 q=39.0 size=    3840KiB time=00:00:03.60 bitrate=8738.2kbits/s speed=0.277x elapsed=0:00:13.00    \nframe=  228 fps= 17 q=38.0 size=    4096KiB time=00:00:03.75 bitrate=8948.0kbits/s speed=0.275x elapsed=0:00:13.63    \nframe=  243 fps= 17 q=39.0 size=    4352KiB time=00:00:03.98 bitrate=8950.3kbits/s speed=0.28x elapsed=0:00:14.23    \nframe=  260 fps= 18 q=39.0 size=    4608KiB time=00:00:04.28 bitrate=8813.0kbits/s speed=0.288x elapsed=0:00:14.85    \nframe=  280 fps= 18 q=44.0 size=    4864KiB time=00:00:04.63 bitrate=8599.9kbits/s speed=0.299x elapsed=0:00:15.48    \nframe=  298 fps= 19 q=-1.0 size=    5120KiB time=00:00:04.93 bitrate=8502.0kbits/s speed=0.307x elapsed=0:00:16.04    \n[mp4 @ 0000018b732b1540] Starting second pass: moving the moov atom to the beginning of the file\n[out#0/mp4 @ 0000018b732b1440] video:5212KiB audio:0KiB subtitle:0KiB other streams:0KiB global headers:0KiB muxing overhead: 0.058586%\nframe=  300 fps= 19 q=-1.0 Lsize=    5215KiB time=00:00:04.96 bitrate=8602.3kbits/s speed=0.308x elapsed=0:00:16.13    \n[libx264 @ 0000018b73ae2240] frame I:2     Avg QP:19.19  size: 40152\n[libx264 @ 0000018b73ae2240] frame P:207   Avg QP:30.32  size: 18821\n[libx264 @ 0000018b73ae2240] frame B:91    Avg QP:21.68  size: 14950\n[libx264 @ 0000018b73ae2240] consecutive B-frames: 59.3%  0.0%  2.0% 38.7%\n[libx264 @ 0000018b73ae2240] mb I  I16..4: 10.5% 89.1%  0.4%\n[libx264 @ 0000018b73ae2240] mb P  I16..4: 14.1% 18.9%  0.3%  P16..4: 24.0%  3.2%  1.5%  0.0%  0.0%    skip:38.1%\n[libx264 @ 0000018b73ae2240] mb B  I16..4:  3.9%  9.8%  0.0%  B16..8: 29.5%  4.7%  0.4%  direct:12.3%  skip:39.3%  L0:51.5% L1:45.8% BI: 2.7%\n[libx264 @ 0000018b73ae2240] 8x8 transform intra:59.8% inter:91.7%\n[libx264 @ 0000018b73ae2240] direct mvs  spatial:89.0% temporal:11.0%\n[libx264 @ 0000018b73ae2240] coded y,uvDC,uvAC intra: 19.5% 40.9% 6.1% inter: 9.9% 24.1% 0.4%\n[libx264 @ 0000018b73ae2240] i16 v,h,dc,p: 43% 33% 14% 11%\n[libx264 @ 0000018b73ae2240] i8 v,h,dc,ddl,ddr,vr,hd,vl,hu: 17% 13% 49%  3%  4%  4%  4%  3%  3%\n[libx264 @ 0000018b73ae2240] i4 v,h,dc,ddl,ddr,vr,hd,vl,hu: 12%  5% 18% 10% 13% 14%  9%  9%  8%\n[libx264 @ 0000018b73ae2240] i8c dc,h,v,p: 55% 25% 17%  3%\n[libx264 @ 0000018b73ae2240] Weighted P-Frames: Y:0.5% UV:0.5%\n[libx264 @ 0000018b73ae2240] ref P L0: 46.5%  6.5% 19.7% 10.4%  9.3%  7.7%\n[libx264 @ 0000018b73ae2240] ref B L0: 65.7% 22.6%  9.1%  2.6%\n[libx264 @ 0000018b73ae2240] ref B L1: 89.7% 10.3%\n[libx264 @ 0000018b73ae2240] kb/s:8538.72\n",
  "seconds": 16.92536473274231,
  "probe_out": {}
}